<?xml version="1.0" encoding="utf-8"?>
<!-- Generator: Adobe Illustrator 19.0.0, SVG Export Plug-In . SVG Version: 6.00 Build 0)  -->
<svg version="1.1" id="Layer_1" xmlns="http://www.w3.org/2000/svg" xmlns:xlink="http://www.w3.org/1999/xlink" x="0px" y="0px"
	 viewBox="0 0 473.7 242" style="enable-background:new 0 0 473.7 242;" xml:space="preserve">
<style type="text/css">
	.st0{fill:#313D41;stroke:#363838;stroke-miterlimit:10;}
	.st1{fill:#FFFFFF;stroke:#363838;stroke-miterlimit:10;}
	.st2{fill:#313D41;stroke:#313D41;stroke-miterlimit:10;}
	.st3{fill:#FFFFFF;stroke:#313D41;stroke-miterlimit:10;}
	.st4{fill:#445358;}
	.st5{fill:#EFC01A;}
	.st6{fill:#F16D6E;}
	.st7{fill:#37BA99;}
	.st8{fill:#5DC8DD;}
</style>
<g id="XMLID_54_">
	<g id="XMLID_55_">
		<path id="XMLID_53_" class="st0" d="M0.5,236.2c0,2.7,2.7,5.3,5.3,5.3h365.4c2.7,0,4.3-2.7,4.3-5.3V15.4H0.5V236.2z"/>
		<path id="XMLID_52_" class="st1" d="M366.3,0.5H10.6C5.3,0.5,0.5,4.4,0.5,9.7v5.8h375V9.7C375.5,4.4,371.6,0.5,366.3,0.5z"/>
		<circle id="XMLID_22_" class="st2" cx="358.6" cy="7.7" r="4.3"/>
		<circle id="XMLID_21_" class="st3" cx="346.1" cy="7.7" r="4.3"/>
		<circle id="XMLID_20_" class="st3" cx="333.6" cy="7.7" r="4.3"/>
		<circle id="XMLID_19_" class="st4" cx="13.5" cy="31.3" r="2.7"/>
		<circle id="XMLID_7_" class="st4" cx="13.5" cy="45.8" r="2.7"/>
		<circle id="XMLID_8_" class="st4" cx="13.5" cy="60.3" r="2.7"/>
		<circle id="XMLID_9_" class="st4" cx="13.5" cy="74.7" r="2.7"/>
		<circle id="XMLID_10_" class="st4" cx="13.5" cy="89.2" r="2.7"/>
		<circle id="XMLID_11_" class="st4" cx="13.5" cy="103.6" r="2.7"/>
		<circle id="XMLID_12_" class="st4" cx="13.5" cy="117.1" r="2.7"/>
		<circle id="XMLID_13_" class="st4" cx="13.5" cy="131.6" r="2.7"/>
		<circle id="XMLID_14_" class="st4" cx="13.5" cy="145.1" r="2.7"/>
		<circle id="XMLID_15_" class="st4" cx="13.5" cy="159.6" r="2.7"/>
		<path id="XMLID_16_" class="st5" d="M68.5,34.7H31c-1.8,0-3.4-1.5-3.4-3.4l0,0c0-1.8,1.5-3.4,3.4-3.4h37.5c1.9,0,3.4,1.5,3.4,3.4
			l0,0C71.8,33.2,70.3,34.7,68.5,34.7z"/>
		<path id="XMLID_17_" class="st6" d="M50.5,49.2H31c-1.8,0-3.4-1.5-3.4-3.4l0,0c0-1.8,1.5-3.4,3.4-3.4h19.4c1.8,0,3.4,1.5,3.4,3.4
			l0,0C53.9,47.7,52.3,49.2,50.5,49.2z"/>
		<path id="XMLID_18_" class="st7" d="M59.8,63.6H31c-1.8,0-3.4-1.5-3.4-3.4l0,0c0-1.8,1.5-3.4,3.4-3.4h28.8c1.8,0,3.4,1.5,3.4,3.4
			l0,0C63.2,62.1,61.7,63.6,59.8,63.6z"/>
		<path id="XMLID_23_" class="st8" d="M37.4,78.1H31c-1.8,0-3.4-1.5-3.4-3.4l0,0c0-1.8,1.5-3.4,3.4-3.4h6.4c1.8,0,3.4,1.5,3.4,3.4
			l0,0C40.7,76.6,39.3,78.1,37.4,78.1z"/>
		<path id="XMLID_24_" class="st7" d="M66.1,92.6H31c-1.8,0-3.4-1.5-3.4-3.4l0,0c0-1.9,1.5-3.4,3.4-3.4h35c1.9,0,3.4,1.5,3.4,3.4
			l0,0C69.4,91.1,67.9,92.6,66.1,92.6z"/>
		<path id="XMLID_25_" class="st6" d="M55,107H31c-1.8,0-3.4-1.5-3.4-3.4l0,0c0-1.8,1.5-3.4,3.4-3.4h24c1.8,0,3.4,1.5,3.4,3.4l0,0
			C58.3,105.5,56.8,107,55,107z"/>
		<path id="XMLID_26_" class="st8" d="M76.7,120.5H31c-1.8,0-3.4-1.5-3.4-3.4l0,0c0-1.9,1.5-3.4,3.4-3.4h45.6c1.9,0,3.4,1.5,3.4,3.4
			l0,0C80,119,78.5,120.5,76.7,120.5z"/>
		<path id="XMLID_27_" class="st5" d="M66.1,135H31c-1.8,0-3.4-1.5-3.4-3.4l0,0c0-1.9,1.5-3.4,3.4-3.4h35c1.9,0,3.4,1.5,3.4,3.4l0,0
			C69.4,133.5,67.9,135,66.1,135z"/>
		<path id="XMLID_28_" class="st6" d="M84.8,148.5H31c-1.8,0-3.4-1.5-3.4-3.4l0,0c0-1.9,1.5-3.4,3.4-3.4h53.8c1.9,0,3.4,1.5,3.4,3.4
			l0,0C88.2,147,86.7,148.5,84.8,148.5z"/>
		<path id="XMLID_29_" class="st8" d="M59.8,162.9H31c-1.8,0-3.4-1.5-3.4-3.4l0,0c0-1.9,1.5-3.4,3.4-3.4h28.8c1.8,0,3.4,1.5,3.4,3.4
			l0,0C63.2,161.4,61.7,162.9,59.8,162.9z"/>
		<path id="XMLID_30_" class="st7" d="M98.4,34.7H78.6c-1.8,0-3.4-1.5-3.4-3.4l0,0c0-1.8,1.5-3.4,3.4-3.4h19.9
			c1.8,0,3.4,1.5,3.4,3.4l0,0C101.8,33.2,100.3,34.7,98.4,34.7z"/>
		<path id="XMLID_31_" class="st8" d="M124,34.7h-15.5c-1.9,0-3.4-1.5-3.4-3.4l0,0c0-1.8,1.5-3.4,3.4-3.4H124c1.9,0,3.4,1.5,3.4,3.4
			l0,0C127.4,33.2,125.9,34.7,124,34.7z"/>
		<path id="XMLID_32_" class="st5" d="M159.3,34.7h-25.2c-1.9,0-3.4-1.5-3.4-3.4l0,0c0-1.8,1.5-3.4,3.4-3.4h25.2
			c1.8,0,3.4,1.5,3.4,3.4l0,0C162.7,33.2,161.2,34.7,159.3,34.7z"/>
		<path id="XMLID_33_" class="st8" d="M86.8,49.2H60.6c-1.8,0-3.4-1.5-3.4-3.4l0,0c0-1.8,1.5-3.4,3.4-3.4h26.2
			c1.9,0,3.4,1.5,3.4,3.4l0,0C90.2,47.6,88.7,49.2,86.8,49.2z"/>
		<path id="XMLID_34_" class="st7" d="M134.5,49.2H96.9c-1.8,0-3.4-1.5-3.4-3.4l0,0c0-1.8,1.5-3.4,3.4-3.4h37.6
			c1.9,0,3.4,1.5,3.4,3.4l0,0C137.9,47.6,136.4,49.2,134.5,49.2z"/>
		<path id="XMLID_35_" class="st6" d="M102.9,63.6h-33c-1.8,0-3.4-1.5-3.4-3.4l0,0c0-1.8,1.5-3.4,3.4-3.4h33c1.9,0,3.4,1.5,3.4,3.4
			l0,0C106.3,62.1,104.8,63.6,102.9,63.6z"/>
		<path id="XMLID_36_" class="st5" d="M129.9,63.6H113c-1.9,0-3.4-1.5-3.4-3.4l0,0c0-1.8,1.5-3.4,3.4-3.4h16.9
			c1.9,0,3.4,1.5,3.4,3.4l0,0C133.3,62.1,131.8,63.6,129.9,63.6z"/>
		<path id="XMLID_37_" class="st5" d="M73.8,78.1H47.5c-1.8,0-3.4-1.5-3.4-3.4l0,0c0-1.9,1.5-3.4,3.4-3.4h26.3
			c1.9,0,3.4,1.5,3.4,3.4l0,0C77.1,76.6,75.6,78.1,73.8,78.1z"/>
		<path id="XMLID_38_" class="st7" d="M114.3,78.1H83.9c-1.8,0-3.4-1.5-3.4-3.4l0,0c0-1.8,1.5-3.4,3.4-3.4h30.4
			c1.9,0,3.4,1.5,3.4,3.4l0,0C117.6,76.6,116.1,78.1,114.3,78.1z"/>
		<path id="XMLID_39_" class="st6" d="M146.4,78.1h-22c-1.8,0-3.4-1.5-3.4-3.4l0,0c0-1.8,1.5-3.4,3.4-3.4h22c1.8,0,3.4,1.5,3.4,3.4
			l0,0C149.8,76.6,148.2,78.1,146.4,78.1z"/>
		<path id="XMLID_40_" class="st8" d="M183.8,78.1h-27.3c-1.9,0-3.4-1.5-3.4-3.4l0,0c0-1.8,1.5-3.4,3.4-3.4h27.3
			c1.9,0,3.4,1.5,3.4,3.4l0,0C187.2,76.6,185.7,78.1,183.8,78.1z"/>
		<path id="XMLID_41_" class="st8" d="M122,92.6H76c-1.8,0-3.4-1.5-3.4-3.4l0,0c0-1.9,1.5-3.4,3.4-3.4H122c1.9,0,3.4,1.5,3.4,3.4
			l0,0C125.3,91.1,123.8,92.6,122,92.6z"/>
		<path id="XMLID_42_" class="st5" d="M153.8,92.6h-21.7c-1.8,0-3.4-1.5-3.4-3.4l0,0c0-1.9,1.5-3.4,3.4-3.4h21.7
			c1.9,0,3.4,1.5,3.4,3.4l0,0C157.1,91.1,155.7,92.6,153.8,92.6z"/>
		<path id="XMLID_43_" class="st5" d="M78.6,107H65.1c-1.9,0-3.4-1.5-3.4-3.4l0,0c0-1.8,1.5-3.4,3.4-3.4h13.5c1.9,0,3.4,1.5,3.4,3.4
			l0,0C82,105.5,80.5,107,78.6,107z"/>
		<path id="XMLID_44_" class="st7" d="M112.3,107H88.7c-1.8,0-3.4-1.5-3.4-3.4l0,0c0-1.8,1.5-3.4,3.4-3.4h23.6
			c1.8,0,3.4,1.5,3.4,3.4l0,0C115.7,105.5,114.2,107,112.3,107z"/>
		<path id="XMLID_45_" class="st6" d="M154.4,107h-32c-1.9,0-3.4-1.5-3.4-3.4l0,0c0-1.8,1.5-3.4,3.4-3.4h32c1.9,0,3.4,1.5,3.4,3.4
			l0,0C157.8,105.5,156.3,107,154.4,107z"/>
		<path id="XMLID_46_" class="st5" d="M118.1,120.5H86.8c-1.8,0-3.4-1.5-3.4-3.4l0,0c0-1.8,1.5-3.4,3.4-3.4h31.3
			c1.8,0,3.4,1.5,3.4,3.4l0,0C121.5,119,120,120.5,118.1,120.5z"/>
		<path id="XMLID_47_" class="st7" d="M131.3,148.5H95c-1.8,0-3.4-1.5-3.4-3.4l0,0c0-1.9,1.5-3.4,3.4-3.4h36.2
			c1.9,0,3.4,1.5,3.4,3.4l0,0C134.6,147,133.1,148.5,131.3,148.5z"/>
		<path id="XMLID_48_" class="st5" d="M148,148.5h-6.6c-1.8,0-3.4-1.5-3.4-3.4l0,0c0-1.9,1.5-3.4,3.4-3.4h6.6c1.9,0,3.4,1.5,3.4,3.4
			l0,0C151.4,147,149.9,148.5,148,148.5z"/>
		<path id="XMLID_49_" class="st8" d="M171.9,148.5h-13.7c-1.8,0-3.4-1.5-3.4-3.4l0,0c0-1.9,1.5-3.4,3.4-3.4h13.7
			c1.9,0,3.4,1.5,3.4,3.4l0,0C175.2,147,173.7,148.5,171.9,148.5z"/>
		<path id="XMLID_50_" class="st5" d="M98.7,162.9H69.9c-1.8,0-3.4-1.5-3.4-3.4l0,0c0-1.9,1.5-3.4,3.4-3.4h28.8
			c1.8,0,3.4,1.5,3.4,3.4l0,0C102.1,161.4,100.5,162.9,98.7,162.9z"/>
		<path id="XMLID_51_" class="st6" d="M137.5,162.9h-28.8c-1.9,0-3.4-1.5-3.4-3.4l0,0c0-1.9,1.5-3.4,3.4-3.4h28.8
			c1.8,0,3.4,1.5,3.4,3.4l0,0C140.9,161.4,139.4,162.9,137.5,162.9z"/>
	</g>
	<path id="XMLID_6_" class="st5" d="M471.2,117.6l-14.5-6.2c-1.4-0.6-2.3-1.9-2.4-3.3c-0.1-2-0.3-4-0.7-6c-0.3-1.4,0.3-2.9,1.5-3.8
		l12.7-9.3c1.6-1.2,2-3.3,1.1-5l-6.5-11.7c-0.9-1.7-3-2.4-4.8-1.7L443,76.3c-1.4,0.5-2.9,0.3-4-0.7c-1.5-1.3-3.1-2.6-4.7-3.7
		c-1.2-0.8-1.8-2.3-1.6-3.7l2.3-15.2c0.3-1.9-1-3.4-2.9-3.9l-12.9-3.7c-1.9-0.5-3.8,0-4.5,1.8l-6.1,14.3c-0.6,1.4-1.8,2.2-3.3,2.2
		c-2,0.1-4,0.3-6,0.6c-1.4,0.3-2.9-0.4-3.8-1.5L386,50.2c-1.2-1.6-3.3-2-5-1.1l-11.7,6.5c-1.7,0.9-2.4,3-1.7,4.8l5.9,14.6
		c0.5,1.4,0.3,2.9-0.7,4c-1.3,1.5-2.6,3.1-3.7,4.7c-0.8,1.2-2.3,1.8-3.7,1.6L349.8,83c-1.9-0.3-3.7,0.9-4.2,2.8l-3.7,12.9
		c-0.5,1.9,0.3,3.8,2.1,4.6l14.4,6.2c1.4,0.6,2.2,1.9,2.3,3.3c0.1,2,0.3,4,0.7,6c0.3,1.4-0.3,2.9-1.5,3.8l-12.7,9.3
		c-1.6,1.2-2,3.3-1.1,5l6.5,11.7c0.9,1.7,3,2.4,4.8,1.7l14.6-5.9c1.4-0.5,2.9-0.3,4,0.7c1.5,1.3,3.1,2.6,4.7,3.7
		c1.2,0.8,1.8,2.3,1.6,3.7l-2.5,15.9c-0.3,1.9,0.8,4.1,2.7,4.7l12.9,3.7c1.9,0.5,4-0.8,4.7-2.6l6.2-14.6c0.6-1.4,1.9-2.4,3.4-2.4
		c2-0.1,4-0.4,6-0.7c1.4-0.3,2.9,0.3,3.8,1.5l9.3,12.7c1.2,1.6,3.3,2,5,1.1l11.7-6.5c1.7-0.9,2.4-3,1.7-4.8l-5.9-14.6
		c-0.5-1.4-0.3-2.9,0.7-4c1.3-1.5,2.6-3.1,3.7-4.7c0.8-1.2,2.3-1.8,3.7-1.6l15.6,2.4c1.9,0.3,3.9-0.9,4.4-2.7l3.7-12.9
		C474.1,120.3,473,118.3,471.2,117.6z M399.8,137.7c-15.1-4.3-23.8-20-19.5-35.1s20-23.8,35.1-19.5c15.1,4.3,23.8,20,19.5,35.1
		C430.6,133.3,414.9,142,399.8,137.7z"/>
	<path id="XMLID_1_" class="st5" d="M351.1,155.5l-12.1-0.9c-1.1-0.1-2.1-0.8-2.5-1.9c-0.6-1.5-1.2-2.9-2-4.2
		c-0.6-1-0.5-2.2,0.2-3.2l7-10c0.9-1.2,0.7-2.9-0.4-3.9l-7.7-7c-1.1-1-2.8-1-4-0.1l-9.2,7.9c-0.9,0.7-2.1,0.9-3.1,0.5
		c-1.4-0.6-2.9-1.1-4.4-1.6c-1.1-0.3-1.9-1.2-2.1-2.4l-2.1-11.6c-0.3-1.5-1.6-2.1-3.1-2.1l-10.4,0.5c-1.5,0.1-2.7,0.8-2.9,2.3
		l-1,11.9c-0.1,1.1-0.8,2-1.9,2.4c-1.5,0.6-2.9,1.2-4.2,1.9c-1,0.6-2.2,0.5-3.2-0.2l-10-7c-1.2-0.9-2.9-0.7-3.9,0.4l-7,7.7
		c-1,1.1-1,2.8-0.1,4l7.9,9.2c0.7,0.9,0.9,2.1,0.5,3.1c-0.6,1.4-1.1,2.9-1.6,4.4c-0.3,1.1-1.2,1.9-2.4,2.1l-12.1,2.1
		c-1.5,0.3-2.6,1.6-2.6,3.1l0.5,10.4c0.1,1.5,1.3,2.7,2.8,2.8l12.2,0.9c1.1,0.1,2.1,0.8,2.6,1.9c0.6,1.5,1.3,2.9,2,4.2
		c0.6,1,0.5,2.2-0.2,3.2l-7,10c-0.9,1.2-0.7,2.9,0.4,3.9l7.7,7c1.1,1,2.8,1,4,0.1l9.3-7.9c0.9-0.7,2.1-0.9,3.1-0.5
		c1.4,0.6,2.9,1.1,4.4,1.6c1.1,0.3,1.9,1.2,2.1,2.4l2.1,12.4c0.3,1.5,1.6,3,3.1,2.9l10.4-0.5c1.5-0.1,2.7-1.7,2.8-3.2l0.9-12.3
		c0.1-1.1,0.8-2.2,1.9-2.6c1.5-0.6,2.9-1.3,4.2-2c1-0.6,2.2-0.5,3.2,0.1l10,7c1.2,0.9,2.9,0.7,3.9-0.4l7-7.7c1-1.1,1-2.8,0.1-4
		l-7.9-9.3c-0.7-0.9-0.9-2.1-0.5-3.1c0.6-1.4,1.1-2.9,1.6-4.4c0.3-1.1,1.2-1.9,2.4-2.1l11.9-2.1c1.5-0.3,2.5-1.6,2.4-3.1l-0.5-10.4
		C353.7,156.9,352.6,155.6,351.1,155.5z M303.8,188c-12.1,0.6-22.4-8.8-23-20.9s8.8-22.4,20.9-23c12.1-0.6,22.4,8.8,23,20.9
		C325.3,177.1,316,187.4,303.8,188z"/>
</g>
</svg>
