<?xml version="1.0" encoding="utf-8"?>
<!-- Generator: Adobe Illustrator 19.0.0, SVG Export Plug-In . SVG Version: 6.00 Build 0)  -->
<svg version="1.1" id="Layer_1" xmlns="http://www.w3.org/2000/svg" xmlns:xlink="http://www.w3.org/1999/xlink" x="0px" y="0px"
	 viewBox="0 0 362 405" style="enable-background:new 0 0 362 405;" xml:space="preserve">
<style type="text/css">
	.st0{fill:#243B55;}
	.st1{fill:#FFFFFF;}
	.st2{fill:#304B69;}
	.st3{fill:#E2EEFA;}
	.st4{fill:none;stroke:#243B55;stroke-width:3;stroke-miterlimit:10;}
	.st5{fill:#B9D1E7;}
	.st6{fill:#D0DF70;}
	.st7{fill:none;stroke:#565656;stroke-width:2;stroke-miterlimit:10;stroke-dasharray:5.015,5.015;}
	.st8{fill:#FF8E30;}
	.st9{fill:none;stroke:#565656;stroke-width:2;stroke-miterlimit:10;}
	.st10{fill:none;stroke:#565656;stroke-width:4;stroke-miterlimit:10;}
	.st11{fill:none;stroke:#565656;stroke-width:3;stroke-miterlimit:10;}
</style>
<g id="XMLID_1_">
	<g id="XMLID_52_">
		<path id="XMLID_58_" class="st0" d="M299.6,405H97.8c-5.5,0-10-4.5-10-10V29.2c0-5.5,4.5-10,10-10h201.8c5.5,0,10,4.5,10,10V395
			C309.6,400.5,305.1,405,299.6,405z"/>
		<path id="XMLID_57_" class="st1" d="M285.5,33.5h-60.2c-2,0-3.8,1-4.9,2.7l-1.5,2.4c-1.1,1.7-2.9,2.7-4.9,2.7h-14.4h-1.9h-14.4
			c-2,0-3.8-1-4.9-2.7l-1.5-2.4c-1.1-1.7-2.9-2.7-4.9-2.7h-60.2c-7.4,0-13.5,6.1-13.5,13.5v329.8c0,7.5,6,13.5,13.5,13.5h173.6
			c7.4,0,13.5-6.1,13.5-13.5V47C299,39.6,292.9,33.5,285.5,33.5z"/>
		<g id="XMLID_53_">
			<path id="XMLID_56_" class="st2" d="M202.2,36.9h-15c-0.5,0-0.9-0.4-0.9-0.9v-1.6c0-0.5,0.4-0.9,0.9-0.9h15
				c0.5,0,0.9,0.4,0.9,0.9V36C203,36.5,202.6,36.9,202.2,36.9z"/>
			<circle id="XMLID_55_" class="st2" cx="210.5" cy="35.2" r="1.7"/>
			<circle id="XMLID_54_" class="st0" cx="210.5" cy="35.2" r="0.6"/>
		</g>
	</g>
	<path id="XMLID_49_" class="st1" d="M279.9,40.2h-56.3c-1.8,0-3.6,1-4.6,2.6l-1.4,2.3c-1,1.6-2.7,2.6-4.6,2.6h-13.5h-1.8h-13.5
		c-1.8,0-3.6-1-4.6-2.6l-1.4-2.3c-1-1.6-2.7-2.6-4.6-2.6h-56.3c-6.9,0-12.6,5.8-12.6,13v317.3c0,7.2,5.7,13,12.6,13h162.5
		c6.9,0,12.6-5.8,12.6-13V53.2C292.5,46.1,286.9,40.2,279.9,40.2z"/>
	<rect id="XMLID_48_" x="104.8" y="345.3" class="st3" width="187.7" height="19.3"/>
	<path id="XMLID_47_" class="st4" d="M317.5,70.5V27.4c0-10.7-5.2-18.4-15.8-18.4H259"/>
	<path id="XMLID_46_" class="st0" d="M212.7,0"/>
	<rect id="XMLID_45_" x="211.9" y="71.3" class="st5" width="80.6" height="102.9"/>
	<rect id="XMLID_44_" x="33.4" y="71.3" class="st6" width="148.2" height="102.9"/>
	<g id="XMLID_43_">
		<path id="XMLID_9_" class="st7" d="M219.3,307.1H111.8c-3.9,0-7-3.1-7-7v-81.2c0-3.9,3.1-7,7-7h107.5c3.9,0,7,3.1,7,7v81.2
			C226.3,303.9,223.2,307.1,219.3,307.1z"/>
	</g>
	<rect id="XMLID_42_" x="247.5" y="237.9" class="st8" width="90" height="69.1"/>
	<line id="XMLID_40_" class="st9" x1="0" y1="222.5" x2="74" y2="222.5"/>
	<line id="XMLID_39_" class="st10" x1="0" y1="243.5" x2="74" y2="243.5"/>
	<line id="XMLID_38_" class="st11" x1="0" y1="262" x2="74" y2="262"/>
	<line id="XMLID_37_" class="st9" x1="0" y1="283.5" x2="74" y2="283.5"/>
	<line id="XMLID_36_" class="st11" x1="0" y1="304" x2="74" y2="304"/>
	<line id="XMLID_30_" class="st10" x1="0" y1="320.5" x2="74" y2="320.5"/>
	<polygon id="XMLID_27_" class="st0" points="326.9,331.4 325.8,290.3 362,310.2 	"/>
	<line id="XMLID_26_" class="st4" x1="344.9" y1="320.6" x2="354.9" y2="337.1"/>
	<line id="XMLID_18_" class="st9" x1="0" y1="339.5" x2="74" y2="339.5"/>
</g>
</svg>
