<?xml version="1.0" encoding="utf-8"?>
<!-- Generator: Adobe Illustrator 19.0.0, SVG Export Plug-In . SVG Version: 6.00 Build 0)  -->
<svg version="1.1" id="Layer_1" xmlns="http://www.w3.org/2000/svg" xmlns:xlink="http://www.w3.org/1999/xlink" x="0px" y="0px"
	 viewBox="0 0 407.5 305.6" style="enable-background:new 0 0 407.5 305.6;" xml:space="preserve">
<style type="text/css">
	.st0{fill:#E1EFFA;}
	.st1{fill:#243B55;}
	.st2{fill:#FFFFFF;}
	.st3{fill:#F3FAFF;}
	.st4{fill:#FF8E30;}
	.st5{fill:#B9D1E7;}
	.st6{fill:#D0DF70;}
	.st7{fill:#E2EEFA;}
	.st8{fill:#304B69;}
</style>
<g id="XMLID_1_">
	<polygon id="XMLID_9_" class="st0" points="195.3,198.6 175,198.8 154.8,198.6 137,250.8 175,250.8 213,250.8 	"/>
	<g id="XMLID_7_">
		<path id="XMLID_3_" class="st1" d="M345,200H5c-2.8,0-5-2.2-5-5V5c0-2.8,2.2-5,5-5h340c2.8,0,5,2.2,5,5v190
			C350,197.8,347.8,200,345,200z"/>
		<rect id="XMLID_4_" x="9.8" y="10.4" class="st2" width="330.4" height="179.2"/>
	</g>
	<polygon id="XMLID_11_" class="st3" points="175,249.8 114.8,249.8 114.8,256.8 175,256.8 234.8,256.8 234.8,249.8 	"/>
	<g id="XMLID_33_">
		<rect id="XMLID_2_" x="16.2" y="14.1" class="st2" width="317.6" height="171.8"/>
		<rect id="XMLID_8_" x="16.3" y="14" class="st4" width="55" height="15"/>
		<rect id="XMLID_10_" x="83.6" y="14" class="st0" width="250" height="15"/>
		<rect id="XMLID_12_" x="16.2" y="37" class="st5" width="317.4" height="36.6"/>
		<rect id="XMLID_14_" x="16.3" y="82.5" class="st6" width="95" height="55"/>
		<rect id="XMLID_15_" x="127.5" y="82.5" class="st6" width="95" height="55"/>
		<rect id="XMLID_16_" x="238.8" y="82.5" class="st6" width="95" height="55"/>
		<rect id="XMLID_17_" x="16.2" y="142.5" class="st7" width="317.4" height="10"/>
		<rect id="XMLID_18_" x="16.2" y="157.5" class="st7" width="317.4" height="10"/>
		<rect id="XMLID_19_" x="16.2" y="172.5" class="st7" width="317.4" height="10"/>
	</g>
	<g id="XMLID_5_">
		<g id="XMLID_26_">
			<path id="XMLID_32_" class="st1" d="M397.5,305.6h-95c-5.5,0-10-4.5-10-10v-180c0-5.5,4.5-10,10-10h95c5.5,0,10,4.5,10,10v180
				C407.5,301.1,403,305.6,397.5,305.6z"/>
			<path id="XMLID_31_" class="st2" d="M395,113h-31.2c-1,0-2,0.5-2.5,1.4l-0.8,1.2c-0.6,0.9-1.5,1.4-2.5,1.4h-7.5h-1H342
				c-1,0-2-0.5-2.5-1.4l-0.8-1.2c-0.6-0.9-1.5-1.4-2.5-1.4H305c-3.9,0-7,3.2-7,7v171c0,3.9,3.1,7,7,7h90c3.9,0,7-3.1,7-7V120
				C402,116.2,398.9,113,395,113z"/>
			<g id="XMLID_27_">
				<path id="XMLID_30_" class="st8" d="M351.4,114.8h-7c-0.5,0-0.9-0.4-0.9-0.9v0c0-0.5,0.4-0.9,0.9-0.9h7c0.5,0,0.9,0.4,0.9,0.9v0
					C352.3,114.4,351.9,114.8,351.4,114.8z"/>
				<circle id="XMLID_29_" class="st8" cx="356" cy="114.1" r="0.9"/>
				<circle id="XMLID_28_" class="st1" cx="356" cy="114.1" r="0.3"/>
			</g>
		</g>
		<path id="XMLID_25_" class="st2" d="M392.1,116.5h-29.2c-1,0-1.8,0.5-2.4,1.3l-0.7,1.2c-0.5,0.8-1.4,1.3-2.4,1.3h-7h-0.9h-7
			c-1,0-1.8-0.5-2.4-1.3l-0.7-1.2c-0.5-0.8-1.4-1.3-2.4-1.3h-29.2c-3.6,0-6.6,3-6.6,6.7v164.5c0,3.7,2.9,6.7,6.6,6.7h84.2
			c3.6,0,6.6-3,6.6-6.7V123.2C398.7,119.5,395.7,116.5,392.1,116.5z"/>
		<rect id="XMLID_24_" x="301.3" y="122.8" class="st4" width="97.3" height="14.3"/>
		<rect id="XMLID_23_" x="301.3" y="142" class="st5" width="97.3" height="24.7"/>
		<rect id="XMLID_22_" x="301.3" y="171.8" class="st6" width="97.3" height="63.5"/>
		<rect id="XMLID_21_" x="301.3" y="240.3" class="st7" width="97.3" height="10"/>
		<rect id="XMLID_20_" x="301.3" y="255.3" class="st7" width="97.3" height="10"/>
		<rect id="XMLID_6_" x="301.3" y="270.3" class="st7" width="97.3" height="10"/>
	</g>
</g>
</svg>
