<?xml version="1.0" encoding="utf-8"?>
<!-- Generator: Adobe Illustrator 19.0.0, SVG Export Plug-In . SVG Version: 6.00 Build 0)  -->
<svg version="1.1" id="Layer_1" xmlns="http://www.w3.org/2000/svg" xmlns:xlink="http://www.w3.org/1999/xlink" x="0px" y="0px"
	 viewBox="0 0 960 560" style="enable-background:new 0 0 960 560;" xml:space="preserve">
<style type="text/css">
	.st0{fill:#FAAF42;}
	.st1{fill:none;stroke:#FFFFFF;stroke-width:7;stroke-miterlimit:10;}
</style>
<g id="XMLID_2_">
	<circle id="XMLID_27_" class="st0" cx="480" cy="280" r="153"/>
	<g id="XMLID_16_">
		<g id="XMLID_7_">
			<path id="XMLID_26_" class="st1" d="M413.1,309.9l-12.7,48.3c-0.2,0.7,0.4,1.2,1.1,1.1l48.3-12.7l110.4-110.4
				c2.4-2.4,2.4-6.3,0-8.7l-14.3-14.3l-13.7-13.7c-2.4-2.4-6.3-2.4-8.7,0L413.1,309.9z"/>
			<line id="XMLID_25_" class="st1" x1="504" y1="219.7" x2="540.7" y2="256.4"/>
			<polyline id="XMLID_24_" class="st1" points="531.3,246.4 446.7,331 428.7,331 428.7,331 429.9,314.2 514.5,229.6 			"/>
			<path id="XMLID_23_" class="st1" d="M449.8,346.6"/>
			<path id="XMLID_22_" class="st1" d="M446.1,330.4"/>
			<line id="XMLID_21_" class="st1" x1="413.1" y1="309.9" x2="429.9" y2="314.2"/>
			<line id="XMLID_8_" class="st1" x1="446.7" y1="331" x2="449.8" y2="346.6"/>
		</g>
		<g id="XMLID_4_">
			<path id="XMLID_6_" class="st1" d="M471,236.5l-35.8-35.8c-2.4-2.4-6.3-2.4-8.7,0l-26.8,26.8c-2.4,2.4-2.4,6.3,0,8.7l24,24
				l11.8,11.8"/>
			<line id="XMLID_5_" class="st1" x1="424.3" y1="260.1" x2="435.5" y2="248.9"/>
			<line id="XMLID_15_" class="st1" x1="408.8" y1="244.5" x2="429.3" y2="224"/>
		</g>
		<g id="XMLID_17_">
			<path id="XMLID_20_" class="st1" d="M523.9,289.3l35.8,35.8c2.4,2.4,2.4,6.3,0,8.7l-26.8,26.8c-2.4,2.4-6.3,2.4-8.7,0l-24-24
				l-11.8-11.8"/>
			<line id="XMLID_19_" class="st1" x1="500.2" y1="336" x2="511.4" y2="324.8"/>
			<line id="XMLID_18_" class="st1" x1="515.8" y1="351.5" x2="536.3" y2="331"/>
		</g>
	</g>
</g>
</svg>
