<?xml version="1.0" encoding="utf-8"?>
<!-- Generator: Adobe Illustrator 19.0.0, SVG Export Plug-In . SVG Version: 6.00 Build 0)  -->
<svg version="1.1" id="Layer_1" xmlns="http://www.w3.org/2000/svg" xmlns:xlink="http://www.w3.org/1999/xlink" x="0px" y="0px"
	 viewBox="0 0 960 560" style="enable-background:new 0 0 960 560;" xml:space="preserve">
<style type="text/css">
	.st0{fill:#E1EFFA;}
	.st1{fill:#243B55;}
	.st2{fill:#FFFFFF;}
	.st3{fill:#F3FAFF;}
	.st4{fill:#FF8E30;}
	.st5{fill:#B9D1E7;}
	.st6{fill:#D0DF70;}
	.st7{fill:#E2EEFA;}
	.st8{fill:#304B69;}
</style>
<polygon id="XMLID_9_" class="st0" points="500.3,325.8 480,326 459.8,325.8 442,378 480,378 518,378 "/>
<g id="XMLID_7_">
	<path id="XMLID_3_" class="st1" d="M650,327.4H310c-2.8,0-5-2.2-5-5v-190c0-2.8,2.2-5,5-5h340c2.8,0,5,2.2,5,5v190
		C655,325.2,652.8,327.4,650,327.4z"/>
	<rect id="XMLID_4_" x="314.8" y="137.8" class="st2" width="330.4" height="179.2"/>
</g>
<polygon id="XMLID_11_" class="st3" points="480,377 420,377 420,384 480,384 540,384 540,377 "/>
<g id="XMLID_33_">
	<rect id="XMLID_1_" x="321.2" y="141.5" class="st2" width="317.6" height="171.8"/>
	<rect id="XMLID_8_" x="321.3" y="141.4" class="st4" width="55" height="15"/>
	<rect id="XMLID_10_" x="388.6" y="141.4" class="st0" width="250" height="15"/>
	<rect id="XMLID_12_" x="321.2" y="164.4" class="st5" width="317.4" height="36.6"/>
	<rect id="XMLID_14_" x="321.3" y="209.9" class="st6" width="95" height="55"/>
	<rect id="XMLID_15_" x="432.5" y="209.9" class="st6" width="95" height="55"/>
	<rect id="XMLID_16_" x="543.8" y="209.9" class="st6" width="95" height="55"/>
	<rect id="XMLID_17_" x="321.2" y="269.9" class="st7" width="317.4" height="10"/>
	<rect id="XMLID_18_" x="321.2" y="284.9" class="st7" width="317.4" height="10"/>
	<rect id="XMLID_19_" x="321.2" y="299.9" class="st7" width="317.4" height="10"/>
</g>
<g id="XMLID_5_">
	<g id="XMLID_26_">
		<path id="XMLID_32_" class="st1" d="M702.5,433h-95c-5.5,0-10-4.5-10-10V243c0-5.5,4.5-10,10-10h95c5.5,0,10,4.5,10,10v180
			C712.5,428.5,708,433,702.5,433z"/>
		<path id="XMLID_31_" class="st2" d="M700,240.4h-31.2c-1,0-2,0.5-2.5,1.4l-0.8,1.2c-0.6,0.9-1.5,1.4-2.5,1.4h-7.5h-1H647
			c-1,0-2-0.5-2.5-1.4l-0.8-1.2c-0.6-0.9-1.5-1.4-2.5-1.4H610c-3.8,0-7,3.1-7,7v171c0,3.9,3.1,7,7,7h90c3.8,0,7-3.1,7-7v-171
			C707,243.6,703.8,240.4,700,240.4z"/>
		<g id="XMLID_27_">
			<path id="XMLID_30_" class="st8" d="M656.4,242.2h-7c-0.5,0-0.9-0.4-0.9-0.9l0,0c0-0.5,0.4-0.9,0.9-0.9h7c0.5,0,0.9,0.4,0.9,0.9
				l0,0C657.3,241.8,656.9,242.2,656.4,242.2z"/>
			<circle id="XMLID_29_" class="st8" cx="661" cy="241.3" r="0.9"/>
			<circle id="XMLID_28_" class="st1" cx="661" cy="241.3" r="0.3"/>
		</g>
	</g>
	<path id="XMLID_25_" class="st2" d="M697.1,243.9h-29.2c-1,0-1.8,0.5-2.4,1.3l-0.7,1.2c-0.5,0.8-1.4,1.3-2.4,1.3h-7h-0.9h-7
		c-1,0-1.8-0.5-2.4-1.3l-0.7-1.2c-0.5-0.8-1.4-1.3-2.4-1.3h-29.2c-3.6,0-6.6,3-6.6,6.7v164.5c0,3.7,2.9,6.7,6.6,6.7h84.2
		c3.6,0,6.6-3,6.6-6.7V250.6C703.7,246.9,700.7,243.9,697.1,243.9z"/>
	<rect id="XMLID_24_" x="606.3" y="250.2" class="st4" width="97.3" height="14.3"/>
	<rect id="XMLID_23_" x="606.3" y="269.4" class="st5" width="97.3" height="24.7"/>
	<rect id="XMLID_22_" x="606.3" y="299.2" class="st6" width="97.3" height="63.5"/>
	<rect id="XMLID_21_" x="606.3" y="367.7" class="st7" width="97.3" height="10"/>
	<rect id="XMLID_20_" x="606.3" y="382.7" class="st7" width="97.3" height="10"/>
	<rect id="XMLID_6_" x="606.3" y="397.7" class="st7" width="97.3" height="10"/>
</g>
</svg>
